<?xml version="1.0" encoding="UTF-8"?>
<svg id="Layer_1" xmlns="http://www.w3.org/2000/svg" version="1.1" viewBox="0 0 792 191.7">
  <!-- Generator: Adobe Illustrator 30.1.0, SVG Export Plug-In . SVG Version: 2.1.1 Build 136)  -->
  <defs>
    <style>
      .st0 {
        fill: none;
      }

      .st1 {
        fill: #3f6f60;
      }

      .st2 {
        fill: #ae917e;
      }
    </style>
  </defs>
  <polygon class="st0" points="537.8 175.2 545.9 175.2 541.8 165.2 537.8 175.2"/>
  <path class="st0" d="M621.4,164.9c0-1.8-1.2-2.9-2.9-2.9s-3,1.3-3,3.2.5,2.4,1.8,3.9c2.7-1,4.1-2.1,4.1-4.1Z"/>
  <path class="st0" d="M511,175.3h-7.8v6.7h8c3,0,4.8-1.1,4.8-3.3h0c0-2.1-1.5-3.4-5-3.4Z"/>
  <path class="st0" d="M514.3,166.5h0c0-2.1-1.6-3.2-4.4-3.2h-6.7v6.5h6.2c3,0,4.9-1,4.9-3.2Z"/>
  <path class="st0" d="M581.7,167.9h0c0-3-2-4.5-5.3-4.5h-6.7v8.8h6.8c3.3,0,5.2-1.8,5.2-4.3Z"/>
  <path class="st0" d="M388,33.2c-3.5,0-4.9.5-4.9,2.6-.9,13.4-2.1,48.8-2.1,52s.9,2.8,4.2,2.8h.2c12.9,0,22.9-12.9,22.9-30.5s-8.3-27-20.3-27Z"/>
  <path class="st0" d="M409.5,163.4h-6.7v8.8h6.8c3.3,0,5.2-1.8,5.2-4.3h0c0-3-2-4.5-5.3-4.5Z"/>
  <path class="st0" d="M364.5,172.6h0c0,5.3,3.9,9.7,9.3,9.7s9.2-4.3,9.2-9.6h0c0-5.3-3.9-9.7-9.3-9.7s-9.2,4.3-9.2,9.6Z"/>
  <path class="st0" d="M336.2,163.4v9.4h5.3c3.4,0,5.3-2,5.3-4.6h0c0-3.1-2.1-4.7-5.5-4.7h-5.2Z"/>
  <path class="st0" d="M612.4,179.3c0,2.2,1.8,3.6,4.3,3.6s3-.7,4.4-1.8l-5.9-6c-2,1.1-2.8,2.5-2.8,4.1Z"/>
  <path class="st0" d="M699.2,163.4h-6.7v8.8h6.8c3.3,0,5.2-1.8,5.2-4.3h0c0-3-2-4.5-5.3-4.5Z"/>
  <path class="st1" d="M33.1,136.8c-4.8,0-9.2-.9-12-2.8-2.1-1.2-3-2.1-4.2-4.1-3.3-5.6-6.5-12-9.9-18-.2-.4-.4-.5-.7-.5-.5,0-2.5,1.2-2.3,1.8l2.6,24c.2,1.1.7,1.4,1.6,1.8,3.9,1.4,12.2,1.9,19.4,1.9,34.2,0,53.6-14.4,53.6-34.9v-.2c0-15.3-14.4-23.3-31-30.8-15-7.4-21.7-12.7-21.7-22.2s10.7-19.2,23.3-19.2,7.2.9,9.5,2.1c1.9,1.1,2.6,1.9,3.3,3.2,3.5,6.2,6.9,12.5,10.2,18.9.2.3.4.3.7.3.7,0,2.3-1.1,2.3-1.6l-2.1-22.9c0-.9-.4-1.2-1.2-1.6-3.2-1.6-10.2-2.5-17.4-2.5-29.3,0-51.1,17.1-51.1,35.6s9.3,22,28,29.1c18.1,6.9,25.7,13.2,25.7,23.8s-11.5,18.9-26.6,18.9Z"/>
  <path class="st1" d="M134.1,35.3l7-1.4c.7,0,.9-1.9.9-2.6s0-.4-.4-.4h-46c-.5,0-.5.2-.5.5,0,.9.4,2.3.9,2.5l7.2,1.6c1.1.2,1.8,1.1,1.8,3,0,4.1.7,40.7.7,47.4.2,6.7.5,39.8.5,46.9s-.5,2.5-1.8,2.6l-7.9,1.8c-.5.2-.7,1.4-.7,2.1s0,.5.5.5c4.8-.2,12.2-.4,21.3-.4s18,.2,22.2.4c.5,0,.5-.2.5-.5,0-.9-.5-1.9-1.2-2.1l-7.4-1.6c-1.2-.2-2.1-.7-2.1-2.1,0-6.7.4-35.2.7-44.6,0-1.2.7-2.1,2.3-2.3,8.5-.5,31.5-1.4,39.6-1.8.2,3.7.4,41.9.4,48.3s-.7,1.9-1.8,2.3l-8.8,1.8c-.5.2-1.1,1.4-1.1,2.1s0,.5.5.5c3-.2,13-.4,23.3-.4s17.8.2,21.7.4c.4,0,.4-.2.4-.5,0-.9-.5-1.9-.9-2.1l-8.8-1.8c-.7-.4-1.1-.9-1.1-2.6.2-4.8.7-38.4,1.1-46.9.2-7.9,1.4-41.1,1.9-48.3.2-1.6.7-2.1,1.8-2.3l6.7-1.4c.5-.2.9-1.8.9-2.5s-.2-.5-.5-.5h-45.3c-.5,0-.5.2-.5.4,0,1.2.4,2.5,1.1,2.6l6.9,1.4c1.4.4,1.9,1.4,1.9,3.3s.5,37.5.4,42.8c-7.9,0-30.7-.5-38.9-.9-1.8-.2-2.6-.4-2.8-2.6,0-3.2.7-29.2,1.4-40.2,0-1.4.7-2.1,2.1-2.5Z"/>
  <path class="st1" d="M435,59.1v-.2c0-18.1-13.7-28.7-44.9-28.7s-34,1.4-42.8,2.1c-.5,0-.5.4-.5.5,0,1.1.5,2.1,1.1,2.3l7,1.1c1.1.2,1.4,1.1,1.6,3,.4,6.5.7,39.8.9,46.9,0,8.5.4,40.2.4,47s-.5,2.1-1.8,2.5l-7.8,1.6c-.5,0-.9,1.1-.9,2.1s0,.5.5.5c3.7-.2,12-.4,21-.4s16.6.2,21.5.4c.4,0,.5-.2.5-.5,0-.9-.5-1.9-1.1-2.1l-7.8-1.9c-1.2-.4-1.8-.9-1.8-2.6,0-7,.5-31.4.7-38.8,1.4,0,4.9.2,5.8.2s1.2.4,1.8.9c10.2,11.6,20.8,26.1,28.9,38.2,1.1,1.6.2,2.3-1.4,2.6l-7,1.4c-.7.2-1.1,1.2-1.1,2.1s0,.5.5.5c7.9-.2,15.2-.4,21.9-.4,9.9,0,15.2.2,19.7.4.5,0,.5-.2.5-.5,0-.9-.4-1.9-1.2-2.3l-7-1.9c-1.2-.4-1.9-1.1-2.6-2.5-7-14.5-17.8-34.5-25.9-46,9.7-4.6,21.3-13.7,21.3-27.5ZM385.3,90.7h-.2c-3.3,0-4.2-.7-4.2-2.8,0-3.2,1.2-38.6,2.1-52,0-2.1,1.4-2.6,4.9-2.6,12,0,20.3,11.8,20.3,27s-10,30.5-22.9,30.5Z"/>
  <path class="st1" d="M495.5,38c.2-1.6.7-2.1,1.9-2.5l7.4-1.6c.7-.2.9-1.8.9-2.5s0-.5-.4-.5h-45.5c-.5,0-.5.2-.5.5,0,1.1.4,2.3.9,2.5l6.5,1.6c1.4.4,1.8,1.2,1.9,3.2.2,3.3.9,37.5.9,44.2.2,6.9.7,43,.7,49.9s-.4,2.5-1.8,2.6l-7.9,1.8c-.5,0-.9,1.1-.9,2.1s0,.5.4.5c3-.2,11.1-.4,19.9-.4s20.4.2,23.3.4c.4,0,.5-.2.5-.7,0-.9-.7-1.9-1.1-1.9l-8.1-1.6c-1.1-.2-1.6-.5-1.6-2.1s0-20.8.2-30.1v-8.6l.5-.4c2.5,2.5,4.1,4.2,5.5,5.5,10.6,9,26.6,24,35.4,33,1.4,1.4,1.1,2.5-.5,2.8l-7.9,1.6c-.7.2-1.1.9-1.1,1.9s.2.7.7.7c4.6-.2,14.6-.4,22.7-.4s15.2.2,19,.4c.4,0,.5-.4.5-.7,0-.7-.4-1.8-1.2-2.1l-4.9-1.6c-1.8-.5-2.8-1.4-4.2-3.3-14.6-19.6-29.1-38.6-44.8-53.6-1.2-1.1-2.3-2.1-3.5-3.5v-.5c.9-1.4,1.9-2.6,3-3.7,11.1-10,28.7-26.3,37.9-33.3,1.8-1.4,3.5-1.9,4.8-2.5l4.1-1.1c.5-.2,1.1-1.6,1.1-2.5s0-.5-.5-.5h-35.4c-.4,0-.4.4-.4.7,0,.9.4,2.1,1.1,2.1l7,1.2c1.2.4,1.9,1.2.4,3.3-6.5,9.3-23.3,28.5-33.1,39.5-1.2,1.4-3.5,3.9-5.1,5.8l-.5-.2c.2-2.5.4-5.5.4-7.8,0-5.5.9-25.7,1.6-37.7Z"/>
  <path class="st1" d="M610.5,35l8.3-1.1c.5-.2,1.1-1.4,1.1-2.5s-.2-.5-.5-.5h-49.5c-.5,0-.7.2-.7.5,0,1.1.4,2.3.9,2.5l4.9,1.1c.9.2,1.9,1.1,2.5,2.1,10.7,21.8,23.6,43.9,31.5,59.4.5,1.4,1.1,3.2,1.2,4.6.2,6.9.9,25,.7,31.7,0,1.9-.4,2.5-1.6,2.6l-9,1.8c-.7.2-1.1,1.2-1.1,2.1s0,.5.5.5c3.9-.2,12.9-.4,22.2-.4s19,.2,23.3.4c.5,0,.5-.2.5-.5,0-.9-.5-1.9-1.2-2.1l-8.5-1.4c-1.2-.4-1.9-.9-1.9-2.3,0-2.5.2-25.4.4-32.4,0-2.5.5-4.8,1.4-6.2,7.6-13.6,25.9-42.6,33.5-56.6,1.2-2.1,2.3-2.8,3.9-3.3l3.7-1.2c.5-.2.9-1.4.9-2.3s-.2-.5-.5-.5h-33.7c-.4,0-.5.2-.5.5,0,.9.3,2.3,1.2,2.5l7.6,1.1c1.4.4,1.9.9,1.4,2.6-4.8,17.4-10.7,32.1-18,47.9-.7,1.8-1.9,4.1-3.2,6.3h-.7c-1.1-2.3-2.8-6.5-3.5-8.1-7.6-17.3-13-30.8-19.4-46.3-.5-1.4.7-2.1,1.9-2.5Z"/>
  <path class="st1" d="M696.4,20.5c-1.1,0-4.9,1.1-7.2,1.8-3.5,1.1-4.2,2.5-4.2,4.1-.2,5.6-1.1,18.1-4.1,27.1-.2.7,1.1,1.8,1.4,1.8.2.2.5.2.7-.2,7.2-7.8,14.1-26.1,14.1-33.7v-.2c0-.5-.4-.7-.7-.7Z"/>
  <path class="st1" d="M780.2,106v-.2c0-15.3-14.4-23.3-31-30.8-15-7.4-21.7-12.7-21.7-22.2s10.7-19.2,23.3-19.2,7.2.9,9.5,2.1c1.9,1.1,2.6,1.9,3.3,3.2,3.5,6.2,6.9,12.5,10.2,18.9.2.3.4.3.7.3.7,0,2.3-1.1,2.3-1.6l-2.1-22.9c0-.9-.4-1.2-1.2-1.6-3.2-1.6-10.2-2.5-17.4-2.5-29.3,0-51.1,17.1-51.1,35.6s9.3,22,28,29.1c18.1,6.9,25.7,13.2,25.7,23.8s-11.5,18.9-26.6,18.9-9.2-.9-12-2.8c-2.1-1.2-3-2.1-4.2-4.1-3.3-5.6-6.5-12-9.9-18-.2-.4-.3-.5-.7-.5-.5,0-2.5,1.2-2.3,1.8l2.6,24c.2,1.1.7,1.4,1.6,1.8,3.9,1.4,12.2,1.9,19.4,1.9,34.2,0,53.6-14.4,53.6-34.9Z"/>
  <path class="st1" d="M221.4,135.1c-.2.2-.4.4-.6.6-.5.5-1,.8-1.7,1.1l-2.5.7c-.5.1-.7,1.1-.7,1.9s0,.4.4.4h38.8c.3,0,.3-.1.3-.5,0-.7-.4-1.6-.8-1.8l-5.9-1c-1-.1-1.4-.8-1.2-1.7,7-26.8,10.2-74.2-2.2-103.2,0-.3,0-.5.4-.2,31.3,20.4,50.6,78.9,53.4,103.5,0,.8-.4,1.5-1.2,1.6l-5.7,1c-.5,0-.8,1-.8,1.9s0,.3.4.3h46.6c.4,0,.4-.1.4-.3,0-.5-.3-1.9-.7-2.1l-3.5-.7c-.4-.2-.8-.4-1-.8h0c-20.1-46.8-42.3-103.9-108.7-131.7-1-.5-.9.3-.7.6,26.7,38.3,9.4,114.6-2.6,129.9,0,.1-.2.2-.3.3Z"/>
  <path class="st2" d="M312.5,182.5c-3.5,0-6.4-1.4-9.2-3.7l-4,4.8c3.7,3.3,8.4,4.9,13,4.9,6.6,0,11.3-3.4,11.3-9.5h0c0-5.4-3.5-7.7-9.7-9.3-5.3-1.4-6.6-2-6.6-4h0c0-1.6,1.4-2.8,3.9-2.8s5.3,1.1,8,3l3.5-5.1c-3.1-2.5-6.9-3.9-11.4-3.9s-10.7,3.7-10.7,9.2h0c0,6.2,4,7.9,10.2,9.5,5.1,1.3,6.2,2.2,6.2,3.9h0c0,1.9-1.7,3-4.4,3Z"/>
  <path class="st2" d="M329.5,157.3v30.7h6.7v-9.2h5.1c6.9,0,12.4-3.7,12.4-10.8h0c0-6.4-4.4-10.7-11.7-10.7h-12.5ZM346.9,168.1h0c0,2.7-2,4.7-5.3,4.7h-5.3v-9.4h5.2c3.4,0,5.5,1.6,5.5,4.6Z"/>
  <path class="st2" d="M357.4,172.7h0c0,8.8,6.8,15.9,16.3,15.9s16.3-7.1,16.3-15.9h0c0-8.8-6.8-15.9-16.3-15.9s-16.3,7.1-16.3,15.9ZM382.9,172.7h0c0,5.3-3.8,9.6-9.2,9.6s-9.3-4.4-9.3-9.6h0c0-5.3,3.8-9.6,9.2-9.6s9.3,4.4,9.3,9.6Z"/>
  <path class="st2" d="M421.6,167.5h0c0-6.4-4.3-10.2-11.6-10.2h-14v30.7h6.7v-9.8h5.3l6.6,9.8h7.9l-7.5-11c3.9-1.4,6.6-4.6,6.6-9.5ZM414.8,167.9c0,2.6-1.9,4.3-5.2,4.3h-6.8v-8.8h6.7c3.3,0,5.3,1.5,5.3,4.4h0Z"/>
  <polygon class="st2" points="441.6 188 441.6 163.5 450.9 163.5 450.9 157.3 425.5 157.3 425.5 163.5 434.8 163.5 434.8 188 441.6 188"/>
  <path class="st2" d="M466.5,182.5c-3.5,0-6.4-1.4-9.2-3.7l-4,4.8c3.7,3.3,8.4,4.9,13,4.9,6.6,0,11.3-3.4,11.3-9.5h0c0-5.4-3.5-7.7-9.7-9.3-5.3-1.4-6.6-2-6.6-4h0c0-1.6,1.4-2.8,3.9-2.8s5.3,1.1,8,3l3.5-5.1c-3.1-2.5-6.9-3.9-11.4-3.9s-10.7,3.7-10.7,9.2h0c0,6.2,4,7.9,10.2,9.5,5.1,1.3,6.2,2.2,6.2,3.9h0c0,1.9-1.7,3-4.4,3Z"/>
  <path class="st2" d="M521,165.3h0c0-4.9-3.9-8-10.1-8h-14.2v30.7h14.6c6.9,0,11.5-2.8,11.5-8.4h0c0-4.2-2.2-6.3-5.7-7.6,2.2-1.2,4-3.2,4-6.6ZM503.2,163.2h6.7c2.8,0,4.4,1.1,4.4,3.2h0c0,2.4-1.9,3.3-4.9,3.3h-6.2v-6.5ZM516,178.7c0,2.3-1.8,3.3-4.8,3.3h-8v-6.7h7.8c3.5,0,5,1.3,5,3.3h0Z"/>
  <path class="st2" d="M538.8,157.1l-13.1,30.9h6.9l2.8-6.9h13l2.8,6.9h7.1l-13.1-30.9h-6.2ZM537.8,175.2l4.1-9.9,4.1,9.9h-8.2Z"/>
  <path class="st2" d="M562.9,188h6.7v-9.8h5.3l6.6,9.8h7.9l-7.5-11c3.9-1.4,6.6-4.6,6.6-9.5h0c0-6.4-4.3-10.2-11.6-10.2h-14v30.7ZM569.7,163.4h6.7c3.3,0,5.3,1.5,5.3,4.4h0c0,2.7-1.9,4.4-5.2,4.4h-6.8v-8.8Z"/>
  <path class="st2" d="M633.4,185.1l-4.5-4.5c1.5-2.1,2.8-4.3,4-6.5l-4.9-2.7c-1,1.9-2,3.7-3,5.3l-4.1-4.1c3.8-1.5,6.4-3.9,6.4-8.1s-3.4-7.8-8.6-7.8-9.3,3.9-9.3,8.1.7,4,2.1,6.2c-3.9,1.8-6,4.5-6,8.5s4.4,8.9,10.3,8.9,6.5-1.4,9-3.4l3.6,3.6,4.9-3.5ZM618.5,162c1.7,0,2.9,1.1,2.9,2.9s-1.4,3.1-4.1,4.1c-1.3-1.4-1.8-2.5-1.8-3.9s1.2-3.2,3-3.2ZM616.7,182.9c-2.5,0-4.3-1.4-4.3-3.6s.8-3,2.8-4.1l5.9,6c-1.4,1.1-2.9,1.8-4.4,1.8Z"/>
  <path class="st2" d="M665.9,163c3.6,0,5.7,1.1,8,3.1l4.2-5.1c-3.2-2.7-6.5-4.2-12-4.2-9.3,0-16.1,7.1-16.1,15.9h0c0,9.2,6.6,15.9,16.1,15.9s9.9-2.2,13.1-4.9v-13.3h-13.3v5.8h6.8v4.4c-1.7,1.2-3.9,1.8-6.4,1.8-5.4,0-9.3-4.1-9.3-9.7h0c0-5.3,3.9-9.6,8.8-9.6Z"/>
  <path class="st2" d="M711.4,167.5h0c0-6.4-4.3-10.2-11.6-10.2h-14v30.7h6.8v-9.8h5.3l6.6,9.8h7.9l-7.5-11c3.9-1.4,6.6-4.6,6.6-9.5ZM704.5,167.9c0,2.6-1.9,4.3-5.2,4.3h-6.8v-8.8h6.7c3.3,0,5.3,1.5,5.3,4.4h0Z"/>
  <rect class="st2" x="717.8" y="157.3" width="6.7" height="30.7"/>
  <polygon class="st2" points="739 157.3 732.2 157.3 732.2 188 754.2 188 754.2 181.9 739 181.9 739 157.3"/>
  <polygon class="st2" points="766.1 181.9 766.1 157.3 759.3 157.3 759.3 188 781.4 188 781.4 181.9 766.1 181.9"/>
</svg>